# xmcd
#
# Track frame offsets:
#	150
#	16309
#	31490
#	45349
#	60844
#	74088
#	89980
#	104105
#	116771
#	128426
#	145270
#	162472
#	180864
#	194307
#	209000
#	225308
#	238908
#	256610
#	272644
#	286096
#
# Disc length: 4108
#
# Revision: 2
# Processed by: cddbd v1.5.1PL0 Copyright (c) Steve Scherf et al.
# Submitted via: EasyCDDAExtractor 6.2.0.3
# Normalized: r1:DSETVAR1
#
DISCID=1f100a14
DTITLE=Various Artist - 76 Saloon Tunes
DYEAR=2004
DGENRE=Country
TTITLE0=blue country - That's Cool
TTITLE1=cotter, brad - I Meant To
TTITLE2=jewel, buddy - One Step At A Time
TTITLE3=johnson, carolyn dawn - Die Of A Broken Heart
TTITLE4=watson, dale - Honky Tonkers Don't Cry
TTITLE5=allan, gary - Nothin' On But The Radio
TTITLE6=dawn, heather - Let's Talk About Me
TTITLE7=matthews, jake - Time After Time
TTITLE8=mccoy, jason - I Feel A Sin Coming On
TTITLE9=hughes, jedd - High Lonesome
TTITLE10=gracin, josh - I Want To Live
TTITLE11=coffey, kellie - Dance With My Father
TTITLE12=fowler, kevin - I Ain't Drinkin' Anymore
TTITLE13=brokop, lisa - Wildflower
TTITLE14=malibu storm - Photograph
TTITLE15=jones, norah - Creepin' In
TTITLE16=reckless kelly - Vancouver
TTITLE17=restless heart - Feel My Way
TTITLE18=austin, sherrie - Son Of A Preacher Man
TTITLE19=mcgraw, tim - Live Like You Were Dying
EXTD=
EXTT0=
EXTT1=
EXTT2=
EXTT3=
EXTT4=
EXTT5=
EXTT6=
EXTT7=
EXTT8=
EXTT9=
EXTT10=
EXTT11=
EXTT12=
EXTT13=
EXTT14=
EXTT15=
EXTT16=
EXTT17=
EXTT18=
EXTT19=
PLAYORDER=
